<?xml version="1.0" encoding="UTF-8" standalone="no"?>
<!DOCTYPE svg PUBLIC "-//W3C//DTD SVG 1.1//EN" "http://www.w3.org/Graphics/SVG/1.1/DTD/svg11.dtd">
<svg xmlns="http://www.w3.org/2000/svg" version="1.1" viewBox="0.00 0.00 69.00 30.00">
<path stroke="#a088c6" stroke-width="2.00" fill="none" stroke-linecap="butt" vector-effect="non-scaling-stroke" d="
  M 40.72 11.67
  C 39.23 15.06 38.28 17.53 36.88 19.39
  C 31.11 27.12 27.51 15.61 22.22 15.64
  C 18.01 15.67 14.20 22.25 11.99 25.21
  A 2.47 2.47 0.0 0 1 8.71 25.84
  Q 4.41 23.18 1.22 27.22
  A 0.63 0.62 -70.9 0 0 1.71 28.23
  L 66.20 28.22
  Q 67.89 28.22 67.53 26.57
  Q 64.94 14.73 57.21 5.06
  Q 53.65 0.60 48.22 1.44
  A 1.65 1.64 -71.8 0 0 47.28 1.92
  Q 43.08 6.26 40.72 11.67"
/>
<path fill="#f2f3f7" d="
  M 0.00 0.00
  L 69.00 0.00
  L 69.00 30.00
  L 0.00 30.00
  L 0.00 0.00
  Z
  M 40.72 11.67
  C 39.23 15.06 38.28 17.53 36.88 19.39
  C 31.11 27.12 27.51 15.61 22.22 15.64
  C 18.01 15.67 14.20 22.25 11.99 25.21
  A 2.47 2.47 0.0 0 1 8.71 25.84
  Q 4.41 23.18 1.22 27.22
  A 0.63 0.62 -70.9 0 0 1.71 28.23
  L 66.20 28.22
  Q 67.89 28.22 67.53 26.57
  Q 64.94 14.73 57.21 5.06
  Q 53.65 0.60 48.22 1.44
  A 1.65 1.64 -71.8 0 0 47.28 1.92
  Q 43.08 6.26 40.72 11.67
  Z"
/>
<path fill="#4d1d95" d="
  M 40.72 11.67
  Q 43.08 6.26 47.28 1.92
  A 1.65 1.64 -71.8 0 1 48.22 1.44
  Q 53.65 0.60 57.21 5.06
  Q 64.94 14.73 67.53 26.57
  Q 67.89 28.22 66.20 28.22
  L 1.71 28.23
  A 0.63 0.62 -70.9 0 1 1.22 27.22
  Q 4.41 23.18 8.71 25.84
  A 2.47 2.47 0.0 0 0 11.99 25.21
  C 14.20 22.25 18.01 15.67 22.22 15.64
  C 27.51 15.61 31.11 27.12 36.88 19.39
  C 38.28 17.53 39.23 15.06 40.72 11.67
  Z"
/>
</svg>